<svg xmlns="http://www.w3.org/2000/svg" xmlns:xlink="http://www.w3.org/1999/xlink" version="1.1" x="0px" y="0px" viewBox="0 0 100 125" enable-background="new 0 0 100 100" xml:space="preserve"><g><path d="M90.84,46.352c0,4.987-0.892,9.762-2.531,14.175v-2.698l-0.275-0.53c-0.064-0.113-6.29-11.899-6.29-22.759   c0-3.862,0.795-7.886,1.822-11.461C88.152,29.683,90.84,37.698,90.84,46.352z"/><path d="M58.919,7.296l-1.86,7.648L50,18.417l-7.069-3.472l-1.854-7.648C43.899,6.134,46.89,5.512,50,5.512   C53.104,5.512,56.101,6.134,58.919,7.296z"/><path d="M16.429,23.079c1.027,3.581,1.817,7.599,1.817,11.461c0,10.823-6.22,22.646-6.285,22.759l-0.275,0.53v2.693   c-1.639-4.413-2.525-9.184-2.525-14.17C9.16,37.698,11.843,29.683,16.429,23.079z"/><path d="M78.271,36.238c0-3.445,0.703-7.026,1.617-10.211c1.639-5.744,3.948-10.211,3.986-10.271l1.076-2.066L62.938,4.608   l-2.282,7.367l-1.65,5.322L50,21.878l-9.011-4.581l-1.649-5.322l-2.282-7.367l-22.014,9.081l1.077,2.061   c0.037,0.065,2.342,4.533,3.985,10.276c0.914,3.186,1.617,6.766,1.617,10.211c0,9.633-5.538,20.153-5.593,20.26l-0.254,0.471   v18.752L50,95.392l34.117-19.671V56.969l-0.254-0.471C83.809,56.391,78.271,45.903,78.271,36.238z M79.861,73.26L50,90.48   L20.134,73.26V58.013c1.163-2.304,5.841-12.18,5.841-21.775c0-4.998-1.271-10.12-2.649-14.208c-0.86-2.547-1.764-4.689-2.429-6.16   l13.473-5.555l0.974,3.143l2.114,6.814L50,26.648l12.537-6.377l2.115-6.82l0.968-3.137l13.478,5.555   c-0.659,1.471-1.568,3.613-2.428,6.16c-1.379,4.089-2.65,9.211-2.65,14.208c0,9.595,4.679,19.471,5.842,21.775V73.26z"/><g><g><path d="M68.384,32.527v27.194l-18.39,20.126L31.616,59.679V32.527H68.384z M65.192,58.483V35.719H34.802V58.44L50,75.115     L65.192,58.483z"/></g></g></g><text x="0" y="115" fill="#000000" font-size="5px" font-weight="bold" font-family="'Helvetica Neue', Helvetica, Arial-Unicode, Arial, Sans-serif">Created by Parallel Digital Studio</text><text x="0" y="120" fill="#000000" font-size="5px" font-weight="bold" font-family="'Helvetica Neue', Helvetica, Arial-Unicode, Arial, Sans-serif">from the Noun Project</text></svg>